<?xml version="1.0" encoding="UTF-8"?>
<svg id="Capa_2" data-name="Capa 2" xmlns="http://www.w3.org/2000/svg" xmlns:xlink="http://www.w3.org/1999/xlink" viewBox="0 0 88.36 109.38">
  <defs>
    <style>
      .cls-1, .cls-2 {
        fill: #fff;
      }

      .cls-2 {
        stroke: #fff;
        stroke-miterlimit: 10;
        stroke-width: .25px;
      }

      .cls-3 {
        fill: #f39507;
      }

      .cls-4 {
        filter: url(#drop-shadow-1);
      }

      .cls-5 {
        fill: #d93c5c;
      }

      .cls-6 {
        fill: #5e230d;
      }

      .cls-7 {
        fill: #ffd005;
      }

      .cls-8 {
        fill: #010101;
      }
    </style>
    <filter id="drop-shadow-1" filterUnits="userSpaceOnUse">
      <feOffset dx="1.12" dy="1.12"/>
      <feGaussianBlur result="blur" stdDeviation="1.12"/>
      <feFlood flood-color="#000" flood-opacity=".4"/>
      <feComposite in2="blur" operator="in"/>
      <feComposite in="SourceGraphic"/>
    </filter>
  </defs>
  <g id="Capa_1-2" data-name="Capa 1">
    <g>
      <path class="cls-1" d="m30.24,84.3l-2.81,1.93-.93-3.31-2.56.21-6.83-6.26,1.99-2.08-5.15-1.63,3.36-2.13-5.03-2.56,4.9-1.19-1.36-1.93,2.8-1.43-.37-.81.34-.28-.58-.43,1.11-1.5-2.61-1.98c-4.78-1.4-8.14-5.81-8.14-10.9,0-.6.05-1.19.14-1.78-2.52-2.15-3.99-5.3-3.99-8.64,0-3.16,1.31-6.13,3.56-8.26-1.31-1.89-2.02-4.13-2.02-6.47,0-6.26,5.1-11.36,11.36-11.36.77,0,1.53.08,2.28.23,1.53-4.53,5.87-7.76,10.77-7.76,2.26,0,4.41.65,6.24,1.87,1.98-3.53,5.78-5.85,9.93-5.85s7.8,2.21,9.82,5.65c1.3-.51,2.7-.77,4.11-.77,5.19,0,9.63,3.49,10.96,8.36.18,0,.35-.01.53-.01,6.26,0,11.36,5.1,11.36,11.36,0,2.23-.66,4.4-1.87,6.25,1.58,2,2.44,4.45,2.44,7.04,0,3.59-1.64,6.88-4.45,9.02.1.6.15,1.22.15,1.83,0,4.51-2.69,8.58-6.76,10.39l-1.32,1.61,2.05,2.64-1.8,1.04.93,2.06-2.38,3.1,1.48,5.58-2.54,1.46v2.65l-2.62.59-.26,1.96-4.35,1.65v2.49l-10.85,1.04-.81-1.1-3.09,1.89-2.26-2.06-3.6,1.73-.63-1.94-1.32.54-1.74-1.07-3.88,2.05-.35.92-3.33-3.64Z"/>
      <path class="cls-8" d="m82.28,37.87c0-2.73-1.13-5.19-2.95-6.94,1.48-1.7,2.38-3.91,2.38-6.34,0-5.33-4.32-9.66-9.66-9.66-.65,0-1.28.07-1.9.19-.56-4.8-4.64-8.53-9.59-8.53-1.79,0-3.46.49-4.9,1.34-1.39-3.63-4.9-6.21-9.02-6.21-4.37,0-8.07,2.91-9.26,6.9-1.75-1.8-4.2-2.92-6.92-2.92-4.83,0-8.84,3.55-9.55,8.19-1.09-.42-2.27-.66-3.5-.66-5.33,0-9.66,4.32-9.66,9.66,0,2.61,1.04,4.98,2.72,6.72-2.57,1.74-4.26,4.68-4.26,8.01s1.65,6.21,4.17,7.95c-.21.79-.32,1.62-.32,2.48,0,4.74,3.42,8.69,7.93,9.5l-.24.21,3.73,2.82-1.11,1.5.95.72-1,.82.51,1.1-2.51,1.28,1.67,2.37-2.86.7,3.6,1.83-2.8,1.78,4.27,1.35-2.67,2.8,5.01,4.59,3.22-.26.67,2.37,2.07-1.42,2.47,2.71.4-1.03.7,1.29,3.8-2,1.83,1.13,2.22-.91.6,1.84,2.88-1.39,2.17,1.97,3.34-2.04,1.16,1.58,8.35-.8v-2.12l4.5-1.7.28-2.12,2.45-.55v-2.27l2.26-1.3-1.36-5.13,2.27-2.96-1.14-2.54,1.44-.83-1.68-2.17,2.31-2.82-.15-.06c3.73-1.34,6.4-4.9,6.4-9.09,0-.9-.12-1.76-.35-2.58,2.79-1.69,4.65-4.76,4.65-8.26Z"/>
      <g>
        <path class="cls-6" d="m68.42,50.82l-.43-.64,2.04-1.55-2.17-1.68.17-.83c-.92-.25-1.78-.63-2.57-1.13-1.49.94-3.25,1.48-5.13,1.48-1.17,0-2.28-.21-3.32-.58-1.73,1.65-4.08,2.67-6.66,2.67-2.04,0-3.93-.64-5.49-1.72-1.26.6-2.67.94-4.16.94-2.6,0-4.95-1.03-6.69-2.7-1.74,1.67-4.09,2.7-6.69,2.7-2.33,0-4.46-.82-6.13-2.2l-1.84,1.06,2.74,3.25-1.94.69,1.51,2.72-1.83,1.26.78.66-2.84,2.5,3.73,2.82-1.11,1.5.95.72-1,.82.51,1.1-2.51,1.28,1.67,2.37-2.86.7,3.6,1.83-2.8,1.78,4.27,1.35-2.67,2.8,5.01,4.59,3.22-.26.67,2.37,2.07-1.42,2.47,2.71.4-1.03.7,1.29,3.8-2,1.83,1.13,2.22-.91.6,1.84,2.88-1.39,2.17,1.97,3.34-2.04,1.16,1.58,8.35-.8v-2.12l4.5-1.7.28-2.12,2.45-.55v-2.27l2.26-1.3-1.36-5.13,2.27-2.96-1.14-2.54,1.44-.83-1.68-2.17,2.31-2.82-2.62-1,1.65-1.37-.94-1.72,2.23-2.87-3.63-.08Z"/>
        <path class="cls-3" d="m67.94,51.71l-1.16-1.73,1.78-1.35-1.68-1.3.3-1.48c-.6-.23-1.17-.51-1.71-.85-1.49.94-3.25,1.48-5.13,1.48-1.17,0-2.28-.21-3.32-.58-1.73,1.65-4.08,2.67-6.66,2.67-2.04,0-3.93-.64-5.49-1.72-1.26.6-2.67.94-4.16.94-2.6,0-4.95-1.03-6.69-2.7-1.74,1.67-4.09,2.7-6.69,2.7-1.98,0-3.81-.59-5.34-1.61l-1.25.72,2.89,3.42-2.17.77,1.4,2.5-1.54,1.06.67.58-2.79,2.45,3.56,2.7-1.11,1.49,1.16.87-1.35,1.11.58,1.25-2.36,1.2,1.83,2.6-1.78.43,2.84,1.44-2.5,1.59,3.8,1.2-3.03,3.18,4.04,3.71,3.56-.29.53,1.88,1.68-1.16,2.02,2.21.58-1.49,1.2,2.21,3.47-1.83,1.88,1.16,2.7-1.11.58,1.78,2.5-1.2,2.12,1.93,3.47-2.12,1.35,1.83,7.03-.67v-1.93l4.57-1.73.29-2.21,2.36-.53v-2.07l2.12-1.22-1.3-4.89,2.21-2.89-1.25-2.79,1.25-.72-1.49-1.93,1.97-2.41-2.89-1.11,2.26-1.88-.87-1.59,1.49-1.93-2.31-.05Z"/>
        <path class="cls-7" d="m65.6,57.44l2.88-2.39-.79-1.46.76-.98-.99-.02-1.88-2.83,1.52-1.15-1.2-.92.44-2.22c-.3-.15-.59-.3-.87-.48-1.49.94-3.25,1.48-5.13,1.48-1.17,0-2.28-.21-3.32-.58-1.73,1.65-4.08,2.67-6.66,2.67-2.04,0-3.93-.64-5.49-1.72-1.26.6-2.67.94-4.16.94-2.6,0-4.95-1.03-6.69-2.7-1.74,1.67-4.09,2.7-6.69,2.7-1.61,0-3.12-.39-4.45-1.09l-.76.43,3.03,3.59-2.39.85,1.28,2.29-1.25.86.57.49-2.74,2.41,3.39,2.57-1.1,1.49,1.36,1.02-1.7,1.39.65,1.41-2.21,1.13,1.99,2.83-.7.17,2.08,1.06-2.21,1.4,3.34,1.06-3.39,3.56,3.08,2.82,3.91-.32.39,1.38,1.3-.89,1.57,1.72.75-1.95,1.71,3.14,3.13-1.65,1.92,1.18,3.17-1.3.56,1.72,2.12-1.02,2.07,1.88,3.59-2.2,1.53,2.08,5.71-.55v-1.73l4.65-1.76.3-2.3,2.27-.51v-1.87l1.97-1.13-1.24-4.65,2.16-2.81-1.36-3.04,1.06-.61-1.3-1.68,1.64-2-3.16-1.21Z"/>
        <path class="cls-8" d="m45.87,69.95c-4.02.26-9.57,1.72-12.23,1.68,0,0,.46.53,1.46,1.93.09.13.19.27.29.41,1.29,1.84,2.83,3.13,4.96,3.54,1.49.29,3.6.24,6.02.08s4.52-.39,5.96-.87c2.05-.68,3.41-2.16,4.45-4.15.08-.16.16-.31.24-.45.81-1.52,1.2-2.11,1.2-2.11-2.63.39-8.32-.33-12.34-.06Zm10.63,2.18c-.04.07-.08.15-.12.22-1.1,2.1-2.43,3.35-4.19,3.93-1.55.51-3.94.72-5.85.85s-4.3.23-5.9-.07c-1.83-.35-3.31-1.41-4.67-3.35-.05-.07-.1-.14-.15-.21-.45-.63-.8-1.1-1.06-1.44,1.35-.1,3.1-.41,4.95-.74,2.17-.39,4.42-.78,6.34-.91h.09c1.92-.13,4.2-.03,6.4.06,1.88.08,3.66.16,5,.08-.21.37-.5.89-.86,1.57Z"/>
        <path class="cls-8" d="m56.5,72.13c-.04.07-.08.15-.12.22-1.1,2.1-2.43,3.35-4.19,3.93-1.55.51-3.94.72-5.85.85s-4.3.23-5.9-.07c-1.83-.35-3.31-1.41-4.67-3.35-.05-.07-.1-.14-.15-.21,2.91-.36,7.14-1.34,10.38-1.55,3.24-.22,7.56.2,10.5.18Z"/>
        <path class="cls-1" d="m52.35,70.48c-2.2-.1-4.49-.2-6.4-.07h-.09c-1.92.13-4.16.53-6.34.92-1.85.33-3.6.64-4.95.74.26.34.61.81,1.06,1.44,2.91-.36,7.14-1.34,10.38-1.55,3.24-.22,7.56.2,10.5.18.36-.68.64-1.2.86-1.57-1.35.08-3.12,0-5-.08Z"/>
        <path class="cls-5" d="m51.36,76.52c-1.49.35-3.42.51-5.01.61-1.47.1-3.22.18-4.68.08-.06-1.17,1.07-2.19,2.53-2.29.46-.03.9.03,1.28.17.57.2,1.18.17,1.71-.13.39-.22.86-.37,1.36-.4,1.47-.1,2.73.78,2.81,1.96Z"/>
        <path class="cls-8" d="m46.63,60.71l1.11,1.93s5.87-5.54,12.47,1.93c0,0-3.8-11.02-13.57-3.85Z"/>
        <path class="cls-8" d="m62.32,50.7s-2.76-.42-5.94.32-4.68,1.62-8.86.45c-3.27-.92,9.95-4.17,14.79-.77Z"/>
        <path class="cls-8" d="m27.31,50.7s2.76-.42,5.94.32,4.68,1.62,8.86.45c3.27-.92-9.95-4.17-14.79-.77Z"/>
        <ellipse class="cls-1" cx="37.12" cy="61.13" rx="7.2" ry="4.81" transform="translate(-26.09 94.56) rotate(-86.6)"/>
        <path class="cls-6" d="m37.74,55.21c-2.24-.13-4.21,2.41-4.41,5.69-.19,3.28,1.46,6.04,3.7,6.17,2.24.13,4.21-2.41,4.41-5.69.19-3.28-1.46-6.04-3.7-6.17Zm-.01,4.44c-.06,1.03-.94,1.81-1.97,1.75-1.03-.06-1.81-.94-1.75-1.97.06-1.03.94-1.81,1.97-1.75,1.03.06,1.81.94,1.75,1.97Zm1.41,5.26c-.36-.02-.64-.33-.62-.7s.33-.64.7-.62.64.33.62.7-.33.64-.7.62Z"/>
        <path class="cls-8" d="m37.64,56.84c-.7-.04-1.37.28-1.91.85.08,0,.16,0,.25,0,1.03.06,1.81.94,1.75,1.97-.06,1.03-.94,1.81-1.97,1.75-.52-.03-.98-.27-1.29-.64,0,.07-.02.14-.02.2-.14,2.38,1.06,4.38,2.69,4.48.61.04,1.19-.2,1.69-.64-.19-.12-.32-.34-.3-.59.02-.36.33-.64.7-.62.16,0,.31.08.42.19.39-.68.64-1.53.7-2.47.14-2.38-1.06-4.38-2.69-4.48Z"/>
        <path class="cls-8" d="m82.28,37.87c0-2.73-1.13-5.19-2.95-6.94,1.48-1.7,2.38-3.91,2.38-6.34,0-5.33-4.32-9.66-9.66-9.66-.65,0-1.28.07-1.9.19-.56-4.8-4.64-8.53-9.59-8.53-1.79,0-3.46.49-4.9,1.34-1.39-3.63-4.9-6.21-9.02-6.21-4.37,0-8.07,2.91-9.26,6.9-1.75-1.8-4.2-2.92-6.92-2.92-4.83,0-8.84,3.55-9.55,8.19-1.09-.42-2.27-.66-3.5-.66-5.33,0-9.66,4.32-9.66,9.66,0,2.61,1.04,4.98,2.72,6.72-2.57,1.74-4.26,4.68-4.26,8.01s1.65,6.21,4.17,7.95c-.21.79-.32,1.62-.32,2.48,0,4.74,3.42,8.69,7.93,9.5l2.61-2.29-.78-.66,1.83-1.26-1.51-2.72,1.94-.69-2.74-3.25,1.84-1.06c1.67,1.37,3.8,2.2,6.13,2.2,2.6,0,4.95-1.03,6.69-2.7,1.74,1.67,4.09,2.7,6.69,2.7,1.49,0,2.9-.34,4.16-.94,1.56,1.08,3.45,1.72,5.49,1.72,2.58,0,4.93-1.02,6.66-2.67,1.03.38,2.15.58,3.32.58,1.89,0,3.65-.54,5.13-1.48.79.5,1.65.88,2.57,1.13l-.17.83,2.17,1.68-2.04,1.55.43.64,3.63.08-2.23,2.87.94,1.72-1.65,1.37,2.46.94c3.73-1.34,6.4-4.9,6.4-9.09,0-.9-.12-1.76-.35-2.58,2.79-1.69,4.65-4.76,4.65-8.26Z"/>
      </g>
      <g class="cls-4">
        <path class="cls-2" d="m9.08,95.56l2.09-.45,1.8,12.29-3.73.73.06-6.82-2.41,4.2-2.65-4.46-.25,6.92-3.83-.22,2.55-12.75,2.92-.1,1.2,5.27,2.27-4.59Z"/>
        <path class="cls-2" d="m21.62,101.45l-3.56.51,4.66,5.47-3.01,1.58-3.3-6.81.32,7.05-2.59-.09-.36-14.95,7.3-1.08.54,8.32Zm-4.99-5.27v2.71l2.42.24.22-3.35-2.64.4Z"/>
        <path class="cls-2" d="m23.52,108.48v-2.9l2.89.21-.21,2.7h-2.69Z"/>
        <path class="cls-2" d="m41.94,94.65l.31,3.65-3.87-.4,1.01,9.56-3.52.68.65-10.29-3.2.46-.13-3.34,8.75-.31Z"/>
        <path class="cls-2" d="m43.07,95.16l8.06.13-.51,11.33-7.55.75v-12.21Zm5.37,8.82l.28-5.53-3.24-.9.27,7.05,2.7-.62Z"/>
        <path class="cls-2" d="m54.36,100.08l5.08,1.75.96,6.7-7.94.42v-3.65l4.85.89c.09-.38.17-.7.22-.97.06-.27.12-.54.17-.82.06-.27.1-.5.13-.69.03-.19.02-.28,0-.28s-.35-.11-.95-.33c-.6-.22-1.29-.48-2.05-.77s-1.73-.66-2.9-1.11l.75-6.07,6.86-1.65-.09,4.97-4.24-1.6-.84,3.24Z"/>
        <path class="cls-2" d="m69.96,94.65l.31,3.65-3.87-.4,1.01,9.56-3.52.68.65-10.29-3.2.46-.13-3.34,8.75-.31Z"/>
        <path class="cls-2" d="m71.08,95.16l8.06.13-.51,11.33-7.55.75v-12.21Zm5.37,8.82l.28-5.53-3.24-.9.26,7.05,2.7-.62Zm.12-13.58l-.98,3.68-1.22-.02.44-3.47,1.76-.18Z"/>
        <path class="cls-2" d="m85.41,102.18l-1.04-8.43,3.85-.52-1.39,14.49-1.67.15-2.93-5.09.75,5.92-3.03.18.37-14.25,1.45.21,3.64,7.33Z"/>
      </g>
    </g>
  </g>
</svg>